<svg version="1.1" xmlns="http://www.w3.org/2000/svg" viewBox="0 0 346.89599609375 624.32421875" width="693.7919921875" height="1248.6484375">
  <!-- svg-source:excalidraw -->
  
  <defs>
    <style class="style-fonts">
      @font-face {
        font-family: "Virgil";
        src: url("https://excalidraw.com/Virgil.woff2");
      }
      @font-face {
        font-family: "Cascadia";
        src: url("https://excalidraw.com/Cascadia.woff2");
      }
      @font-face {
        font-family: "Assistant";
        src: url("https://excalidraw.com/Assistant-Regular.woff2");
      }
    </style>
    
  </defs>
  <g stroke-linecap="round" transform="translate(10 10) rotate(0 143.44921875 178.6875)"><path d="M32 0 C86.54 2.06, 139.36 3.6, 254.9 0 M32 0 C118.93 -2.26, 206.75 -1.05, 254.9 0 M254.9 0 C276.19 -0.1, 289.93 12.03, 286.9 32 M254.9 0 C275.03 2.3, 284.35 6.84, 286.9 32 M286.9 32 C288.28 134.3, 291.45 234.07, 286.9 325.38 M286.9 32 C288.61 130.87, 288.75 231.18, 286.9 325.38 M286.9 325.38 C289.01 343.02, 277.08 360.68, 254.9 357.38 M286.9 325.38 C285.41 345.48, 279.64 359.67, 254.9 357.38 M254.9 357.38 C198.76 357.06, 150.2 356.14, 32 357.38 M254.9 357.38 C177.44 357.69, 103.67 356.11, 32 357.38 M32 357.38 C13.18 357.21, 0.64 347.5, 0 325.38 M32 357.38 C6.15 360.79, -4.39 342.42, 0 325.38 M0 325.38 C-1.86 255.99, -1.95 182.38, 0 32 M0 325.38 C-3.84 240.88, -2.16 157.64, 0 32 M0 32 C-0.39 10.81, 12.67 -1.97, 32 0 M0 32 C3.91 9.83, 13.17 4.57, 32 0" stroke="#1e1e1e" stroke-width="4" fill="none"></path></g><g stroke-linecap="round" transform="translate(48.50390625 57.9765625) rotate(0 93.623046875 112.25)"><path d="M32 0 C59.99 2.51, 92.84 -3.43, 155.25 0 M32 0 C78.11 1.71, 123.47 1.28, 155.25 0 M155.25 0 C173.54 -0.42, 188.46 8.33, 187.25 32 M155.25 0 C178.87 2.07, 186.73 9.55, 187.25 32 M187.25 32 C188.8 90.62, 189.24 157.12, 187.25 192.5 M187.25 32 C186.69 81.1, 188.26 127.18, 187.25 192.5 M187.25 192.5 C190.31 213.89, 175.73 222.68, 155.25 224.5 M187.25 192.5 C186.22 214.83, 174.45 226.06, 155.25 224.5 M155.25 224.5 C115.65 219.97, 74.64 225.08, 32 224.5 M155.25 224.5 C123.3 226.81, 88.49 227.22, 32 224.5 M32 224.5 C7.56 221.04, -3.43 216.32, 0 192.5 M32 224.5 C9.06 223.82, -4.5 211.37, 0 192.5 M0 192.5 C1.05 156.86, -3.22 121.62, 0 32 M0 192.5 C1.9 132.01, 2.97 71.64, 0 32 M0 32 C-0.08 7.51, 10.49 -2.81, 32 0 M0 32 C3.87 12.04, 11.09 4.45, 32 0" stroke="#1e1e1e" stroke-width="4" fill="none"></path></g><g stroke-linecap="round" transform="translate(261.140625 110.77734375) rotate(0 6.81640625 7.73046875)"><path d="M3.41 0 C6.05 -0.33, 7.6 -0.1, 10.22 0 M3.41 0 C6.07 -0.1, 8.01 -0.14, 10.22 0 M10.22 0 C13.46 1, 13.91 0.66, 13.63 3.41 M10.22 0 C12.61 1.34, 14.68 2.33, 13.63 3.41 M13.63 3.41 C13.36 6.31, 13.5 8.14, 13.63 12.05 M13.63 3.41 C13.56 6.15, 13.65 8.85, 13.63 12.05 M13.63 12.05 C11.7 14.15, 11.04 16.03, 10.22 15.46 M13.63 12.05 C12.85 16.11, 10.63 16.61, 10.22 15.46 M10.22 15.46 C8.97 15.52, 7.39 15.79, 3.41 15.46 M10.22 15.46 C7.96 15.29, 5.59 15.65, 3.41 15.46 M3.41 15.46 C2.74 15.36, -1.5 13.7, 0 12.05 M3.41 15.46 C0.06 13.34, 0.24 13.35, 0 12.05 M0 12.05 C-0.23 9.42, 0.52 8.3, 0 3.41 M0 12.05 C-0.43 9.71, 0.01 6.78, 0 3.41 M0 3.41 C1.46 1.12, -0.41 0.09, 3.41 0 M0 3.41 C-0.12 0.83, 2.35 -2.26, 3.41 0" stroke="#1e1e1e" stroke-width="4" fill="none"></path></g><g stroke-linecap="round" transform="translate(261.33984375 133.4921875) rotate(0 6.81640625 7.73046875)"><path d="M3.41 0 C5.46 0.5, 8.12 -0.26, 10.22 0 M3.41 0 C4.79 -0.29, 6.47 0.23, 10.22 0 M10.22 0 C10.81 0.73, 13.02 -0.26, 13.63 3.41 M10.22 0 C10.48 1.99, 12.37 -0.33, 13.63 3.41 M13.63 3.41 C14.18 5.78, 14.28 8.05, 13.63 12.05 M13.63 3.41 C13.35 6.29, 13.63 9.69, 13.63 12.05 M13.63 12.05 C14.2 14, 11.74 17.26, 10.22 15.46 M13.63 12.05 C14.84 12.41, 10.66 14.78, 10.22 15.46 M10.22 15.46 C8.27 16.11, 5.86 14.91, 3.41 15.46 M10.22 15.46 C8.71 15.37, 6.92 15.51, 3.41 15.46 M3.41 15.46 C2.6 14.06, -1.24 13.66, 0 12.05 M3.41 15.46 C-0.13 14.6, -1.97 13.6, 0 12.05 M0 12.05 C-0.85 8.72, 0.5 5.76, 0 3.41 M0 12.05 C0.12 8.46, 0.28 5.62, 0 3.41 M0 3.41 C-0.8 2.86, 1.45 -0.09, 3.41 0 M0 3.41 C-0.48 0.45, -0.09 -0.45, 3.41 0" stroke="#1e1e1e" stroke-width="4" fill="none"></path></g><g stroke-linecap="round" transform="translate(262.42578125 156.53515625) rotate(0 6.81640625 7.73046875)"><path d="M3.41 0 C6.63 0.03, 9.04 0.29, 10.22 0 M3.41 0 C5.37 -0.14, 7.19 -0.16, 10.22 0 M10.22 0 C10.68 0.58, 15.51 2.79, 13.63 3.41 M10.22 0 C13 0.74, 15.04 -0.42, 13.63 3.41 M13.63 3.41 C13.46 6.99, 14.25 10.22, 13.63 12.05 M13.63 3.41 C13.41 5.75, 13.67 8.45, 13.63 12.05 M13.63 12.05 C14.4 15.13, 12.7 14.45, 10.22 15.46 M13.63 12.05 C13.78 14.23, 11.85 16.68, 10.22 15.46 M10.22 15.46 C9.2 15.68, 7.77 14.93, 3.41 15.46 M10.22 15.46 C8.8 15.79, 7.28 15.3, 3.41 15.46 M3.41 15.46 C1.55 13.65, -0.48 12.56, 0 12.05 M3.41 15.46 C2.87 16.69, 0.39 16.57, 0 12.05 M0 12.05 C-0.13 8.89, 0.32 7.28, 0 3.41 M0 12.05 C-0.21 9.41, 0.48 6.48, 0 3.41 M0 3.41 C-1.89 -0.3, 0.3 1.57, 3.41 0 M0 3.41 C-0.67 1.6, 2.87 -0.49, 3.41 0" stroke="#1e1e1e" stroke-width="4" fill="none"></path></g><g stroke-linecap="round" transform="translate(53.89453125 303.41796875) rotate(0 87.5078125 23.173828125)"><path d="M11.59 0 C49.05 -2.6, 89.77 1.28, 163.43 0 M11.59 0 C54.77 0.09, 95.09 -2.47, 163.43 0 M163.43 0 C170.54 -0.75, 177.56 2.71, 175.02 11.59 M163.43 0 C169.9 -2.28, 178.74 5.02, 175.02 11.59 M175.02 11.59 C176.73 16.79, 175.52 27.77, 175.02 34.76 M175.02 11.59 C175.92 14.89, 177.29 20.08, 175.02 34.76 M175.02 34.76 C176.08 44.99, 173.46 43.99, 163.43 46.35 M175.02 34.76 C171.56 42.89, 169.12 42.17, 163.43 46.35 M163.43 46.35 C103.57 42.39, 50.13 44, 11.59 46.35 M163.43 46.35 C110.09 47.6, 52.16 46.47, 11.59 46.35 M11.59 46.35 C1.64 49.97, 2.95 41.43, 0 34.76 M11.59 46.35 C7.43 42.31, 0.91 40.62, 0 34.76 M0 34.76 C0.73 31.84, -0.52 25.07, 0 11.59 M0 34.76 C1.23 29.46, -0.71 22.55, 0 11.59 M0 11.59 C3.83 6.22, 0.59 1.88, 11.59 0 M0 11.59 C-2.55 -0.05, 6.3 4.4, 11.59 0" stroke="#1e1e1e" stroke-width="4" fill="none"></path></g><g stroke-linecap="round" transform="translate(76.07421875 133.09765625) rotate(0 27.62890625 9.935546875)"><path d="M-0.67 -1.02 L54.09 0.71 L53.28 21.79 L-0.71 21.73" stroke="none" stroke-width="0" fill="#e03131"></path><path d="M-1.1 -1 C15 -1.29, 28.8 -0.61, 53.58 -0.29 M0.9 -0.43 C16.44 -0.02, 33.36 -0.3, 55.61 0.72 M57.22 -1.49 C55.21 8.56, 54.13 15.27, 56.28 21.76 M54.5 0.19 C55.4 6.17, 55.05 12.27, 55.77 19.56 M57.18 18.48 C39.51 17.68, 21.17 18.94, -1.93 19.09 M55.9 20.06 C34.47 18.95, 13.58 20.02, -0.58 20.71 M-0.94 18.75 C-1.46 12.56, -0.41 8.44, 0.31 1.62 M-0.22 19.52 C-0.65 12.25, 1.09 5.88, -0.53 -0.76" stroke="#1e1e1e" stroke-width="1" fill="none"></path></g><g stroke-linecap="round" transform="translate(75.53125 174.791015625) rotate(0 27.62890625 9.935546875)"><path d="M-0.35 0.55 L53.49 0.65 L55.96 20.98 L1.91 21.07" stroke="none" stroke-width="0" fill="#e8590c"></path><path d="M-0.49 -1.63 C19.39 -1.88, 37.32 0.54, 54.91 0.98 M-0.35 -0.04 C19.9 -0.92, 37.98 -0.35, 54.8 -0.99 M56.24 -0.87 C54.76 3.05, 55.25 8.37, 56.93 17.96 M55.6 -0.24 C55.11 6.77, 54.56 15.69, 54.36 19.85 M56.38 18.57 C42.72 19.68, 31.73 20.77, 0.25 21.85 M55.61 20.04 C39.08 19.02, 21.71 18.53, -0.67 20.55 M-0.82 18.57 C-0.03 12.61, 0.56 10.41, -1.42 1.83 M0.74 19.78 C-0.45 14.43, -0.94 6.94, -0.98 -0.84" stroke="#1e1e1e" stroke-width="1" fill="none"></path></g><g stroke-linecap="round" transform="translate(75.2734375 213.662109375) rotate(0 27.62890625 9.935546875)"><path d="M1.65 -1.6 L54.33 1.63 L53.89 20.53 L1.33 20.15" stroke="none" stroke-width="0" fill="#f08c00"></path><path d="M-1.46 -2 C18.64 -1.28, 34.11 0.3, 53.42 0.4 M-0.65 0.61 C17.17 -0.67, 33.57 0.71, 55.02 -0.7 M54.7 -0.27 C54.98 5.89, 53.59 10.05, 57.21 21.76 M55.27 0.14 C55.97 5.54, 55.44 10.11, 54.73 19.54 M54.13 21.86 C37.26 21.66, 17.59 18.05, 0.81 21.45 M56.02 19.62 C42.47 20.79, 28.33 19.28, -0.88 19.22 M-1.84 21.22 C1.36 13.79, -1.25 6.48, 1.26 -0.75 M-0.4 19.37 C-0.54 13.49, 0.52 7.24, -0.76 0.39" stroke="#1e1e1e" stroke-width="1" fill="none"></path></g><g transform="translate(59.984375 133.2734375) rotate(0 5.3359375 9.200000000000003)"><text x="0" y="0" font-family="Helvetica, Segoe UI Emoji" font-size="16px" fill="#1e1e1e" text-anchor="start" style="white-space: pre;" direction="ltr" dominant-baseline="text-before-edge">A</text></g><g transform="translate(58.9765625 172.60859375) rotate(0 5.3359375 9.199999999999989)"><text x="0" y="0" font-family="Helvetica, Segoe UI Emoji" font-size="16px" fill="#1e1e1e" text-anchor="start" style="white-space: pre;" direction="ltr" dominant-baseline="text-before-edge">B</text></g><g transform="translate(59.734375 212.60859375) rotate(0 5.77734375 9.199999999999989)"><text x="0" y="0" font-family="Helvetica, Segoe UI Emoji" font-size="16px" fill="#1e1e1e" text-anchor="start" style="white-space: pre;" direction="ltr" dominant-baseline="text-before-edge">C</text></g><g transform="translate(76.1484375 15.953125) rotate(0 72.97197723388672 22.5)"><text x="0" y="0" font-family="Virgil, Segoe UI Emoji" font-size="36px" fill="#1971c2" text-anchor="start" style="white-space: pre;" direction="ltr" dominant-baseline="text-before-edge">Chokol.it</text></g><g stroke-linecap="round" transform="translate(115.9929296676255 317.99084423389945) rotate(24.102861102277853 22.542837386021517 8.106561132665888)"><path d="M-1.81 -0.14 L46.45 -0.47 L43.4 15.32 L-1.2 16.58" stroke="none" stroke-width="0" fill="#e8590c"></path><path d="M-1.11 1.08 C12.71 0.41, 27.15 1.07, 46.06 0.84 M0.02 0.83 C13.97 -0.9, 27.45 0.51, 44.98 -0.24 M43.48 -0.95 C46.33 5.48, 44.69 6.6, 46.39 15.06 M45.12 0.41 C45.24 4.35, 45.19 9.21, 44.66 16.72 M45.38 14.51 C28.29 18.21, 14.7 16.1, -1.74 18.12 M44.95 16.6 C28.06 16.56, 10.54 16.93, -0.47 15.3 M-1.4 15.93 C-1.6 11.38, 1.46 5.08, -1.46 -0.17 M0.16 16.72 C-0.25 9.87, -0.73 4.99, -0.72 -0.04" stroke="#1e1e1e" stroke-width="1" fill="none"></path></g><g stroke-linecap="round" transform="translate(108.99609375 327.07552782773325) rotate(0 27.109375 8.011492378105828)"><path d="M-1.59 0.72 L53.45 -1.62 L56.19 17.52 L-1.34 14.82" stroke="none" stroke-width="0" fill="#ffffff"></path><path d="M-1.67 0.52 C16.86 -1.02, 33.24 1.78, 52.79 0.1 M-0.5 0.32 C13.32 -0.79, 26.52 0.14, 54.95 -0.4 M55.71 1.59 C52.52 3.91, 52.52 5.29, 53.91 15.07 M54.95 0.44 C53.73 5.27, 54.14 12.07, 53.84 15.81 M55.39 15.35 C38.41 13.93, 20.16 15.43, -0.75 16.07 M54.38 16.85 C36.52 16.23, 18.72 16.82, 0.97 16.11 M-0.68 16.23 C0.87 11.58, 0.68 7.38, -0.72 0.56 M-0.55 15.76 C-0.66 11.33, -0.3 4.85, -0.57 0.21" stroke="#ffffff" stroke-width="1" fill="none"></path></g><g transform="translate(52.49609375 434.32421875) rotate(0 142.199951171875 90)"><text x="0" y="0" font-family="Virgil, Segoe UI Emoji" font-size="36px" fill="#2f9e44" text-anchor="start" style="white-space: pre;" direction="ltr" dominant-baseline="text-before-edge">Plan</text><text x="0" y="45" font-family="Virgil, Segoe UI Emoji" font-size="36px" fill="#2f9e44" text-anchor="start" style="white-space: pre;" direction="ltr" dominant-baseline="text-before-edge">1. Make musheen</text><text x="0" y="90" font-family="Virgil, Segoe UI Emoji" font-size="36px" fill="#2f9e44" text-anchor="start" style="white-space: pre;" direction="ltr" dominant-baseline="text-before-edge">2. Launch</text><text x="0" y="135" font-family="Virgil, Segoe UI Emoji" font-size="36px" fill="#2f9e44" text-anchor="start" style="white-space: pre;" direction="ltr" dominant-baseline="text-before-edge">3. Buy chokolits</text></g></svg>